<?xml version="1.0" encoding="UTF-8"?>
<svg id="Layer_2" xmlns="http://www.w3.org/2000/svg" viewBox="0 0 800 1200">
  <defs>
    <style>
      .cls-1 {
        fill: #023baf;
      }

      .cls-2 {
        fill: #00236a;
      }

      .cls-3 {
        fill: #c8dafe;
      }

      .cls-4 {
        fill: #4080ff;
      }

      .cls-5 {
        fill: #095eff;
      }

      .cls-6 {
        fill: #7caaff;
      }
    </style>
  </defs>
  <g id="Layer_1-2" data-name="Layer_1">
    <g>
      <polyline class="cls-2" points="426.67 .2 800 .2 800 1200 426.67 1200"/>
      <path class="cls-1" d="M619.45,1199.8c29.11-28.63,31.96-303.93.65-525.29-29.01-189.95-58.62-495.36,23.08-674.51-46.85.03-93.7.07-140.55.1v1199.9"/>
      <path class="cls-5" d="M527.88,1200c99.88-438.49-54.93-759.98,6.54-1199.7-48.05-.07-112.44-.12-161.08-.1v1199.8"/>
      <path class="cls-4" d="M294.14.2h153.83c-35.05,177.55,2.11,323.48,29.05,492.26,50.41,255.17-3.92,467.75-103.89,707.54h-90.31"/>
      <path class="cls-6" d="M189.09.2h105.1c191.2,420.14,78.64,800.96-11.41,1199.8H75.96"/>
      <path class="cls-3" d="M0,.2h188.78c313.67,513.69-93.61,759.63-87.61,1199.8H0"/>
    </g>
  </g>
</svg>